<svg xmlns="http://www.w3.org/2000/svg" xmlns:xlink="http://www.w3.org/1999/xlink" width="500" zoomAndPan="magnify" viewBox="0 0 375 374.999991" height="500" preserveAspectRatio="xMidYMid meet" version="1.0"><defs><g/><clipPath id="0fd49e237b"><path d="M 149.753906 149.421875 L 225.15625 149.421875 L 225.15625 225.585938 L 149.753906 225.585938 Z M 149.753906 149.421875 " clip-rule="nonzero"/></clipPath></defs><path fill="#0097b2" d="M 155.941406 181.203125 L 166.734375 171.5625 L 169.460938 172.957031 L 181.285156 160.953125 L 185.527344 165.683594 L 187.167969 164.53125 L 192.988281 172.109375 L 200.019531 166.53125 L 207.386719 172.6875 L 209.085938 171.046875 L 218.515625 179.566406 L 209.269531 173.445312 L 211.511719 178.78125 L 200.234375 167.988281 L 195.867188 172.078125 L 200.355469 183.476562 L 187.105469 167.289062 L 185.46875 168.625 L 181.285156 163.105469 L 173.101562 184.265625 L 172.917969 176.566406 L 166.675781 173.535156 Z M 155.941406 181.203125 " fill-opacity="1" fill-rule="evenodd"/><g clip-path="url(#0fd49e237b)"><path fill="#0097b2" d="M 219.464844 205.871094 C 219.632812 205.582031 220 205.484375 220.289062 205.648438 C 220.578125 205.816406 220.679688 206.183594 220.511719 206.472656 C 217.167969 212.28125 212.332031 217.125 206.535156 220.476562 C 200.933594 223.71875 194.429688 225.574219 187.496094 225.574219 C 180.5625 225.574219 174.0625 223.71875 168.457031 220.476562 C 162.660156 217.125 157.828125 212.28125 154.480469 206.472656 C 154.316406 206.183594 154.414062 205.816406 154.703125 205.648438 C 154.992188 205.484375 155.363281 205.582031 155.527344 205.871094 C 158.765625 211.492188 163.445312 216.183594 169.066406 219.429688 C 174.484375 222.566406 180.78125 224.359375 187.496094 224.359375 C 194.214844 224.359375 200.507812 222.566406 205.929688 219.429688 C 211.546875 216.183594 216.226562 211.492188 219.464844 205.871094 Z M 151.003906 182.246094 C 150.957031 182.578125 150.652344 182.808594 150.320312 182.761719 C 149.992188 182.714844 149.761719 182.40625 149.808594 182.078125 C 151.132812 172.785156 155.8125 164.574219 162.582031 158.707031 C 169.257812 152.921875 177.96875 149.421875 187.496094 149.421875 C 197.023438 149.421875 205.734375 152.921875 212.414062 158.707031 C 219.183594 164.574219 223.863281 172.785156 225.1875 182.078125 C 225.234375 182.40625 225.003906 182.714844 224.671875 182.761719 C 224.339844 182.808594 224.035156 182.578125 223.988281 182.246094 C 222.707031 173.25 218.175781 165.300781 211.621094 159.621094 C 205.160156 154.023438 196.722656 150.632812 187.496094 150.632812 C 178.269531 150.632812 169.835938 154.023438 163.371094 159.621094 C 156.820312 165.300781 152.289062 173.25 151.003906 182.246094 Z M 151.003906 182.246094 " fill-opacity="1" fill-rule="nonzero"/></g><g fill="#0097b2" fill-opacity="1"><g transform="translate(180.689334, 190.715533)"><g><path d="M 2.984375 0 L 2.984375 -5.003906 L 4.539062 -5.003906 L 4.539062 -6.246094 L 0.175781 -6.246094 L 0.175781 -5.003906 L 1.730469 -5.003906 L 1.730469 0 Z M 2.984375 0 "/></g></g></g><g fill="#0097b2" fill-opacity="1"><g transform="translate(185.47529, 190.715533)"><g><path d="M 1.949219 0 L 1.949219 -6.253906 L 0.699219 -6.253906 L 0.699219 0 Z M 1.949219 0 "/></g></g></g><g fill="#0097b2" fill-opacity="1"><g transform="translate(188.13513, 190.715533)"><g><path d="M 1.949219 -3.402344 L 5.117188 0.132812 L 5.449219 0.132812 L 5.449219 -6.246094 L 4.191406 -6.246094 L 4.191406 -2.710938 L 1.03125 -6.386719 L 0.699219 -6.386719 L 0.699219 0 L 1.949219 0 Z M 1.949219 -3.402344 "/></g></g></g><g fill="#0097b2" fill-opacity="1"><g transform="translate(155.306932, 202.381412)"><g><path d="M 1.949219 0 L 1.949219 -2.386719 L 3.160156 -2.386719 C 5.582031 -2.386719 5.589844 -6.246094 3.160156 -6.246094 L 0.699219 -6.246094 L 0.699219 0 Z M 1.949219 -3.605469 L 1.949219 -5.003906 L 3.054688 -5.003906 C 3.894531 -5.003906 3.894531 -3.605469 3.054688 -3.605469 Z M 1.949219 -3.605469 "/></g></g></g><g fill="#0097b2" fill-opacity="1"><g transform="translate(160.582865, 202.381412)"><g><path d="M 5.074219 0 L 5.074219 -6.253906 L 3.824219 -6.253906 L 3.824219 -3.753906 L 1.949219 -3.753906 L 1.949219 -6.253906 L 0.699219 -6.253906 L 0.699219 0 L 1.949219 0 L 1.949219 -2.503906 L 3.824219 -2.503906 L 3.824219 0 Z M 5.074219 0 "/></g></g></g><g fill="#0097b2" fill-opacity="1"><g transform="translate(166.366263, 202.381412)"><g><path d="M 3.710938 0.0859375 C 8.015625 0.0859375 8.015625 -6.359375 3.710938 -6.359375 C -0.59375 -6.359375 -0.59375 0.0859375 3.710938 0.0859375 Z M 3.710938 -1.207031 C 1.207031 -1.207031 1.207031 -5.074219 3.710938 -5.074219 C 6.210938 -5.074219 6.210938 -1.207031 3.710938 -1.207031 Z M 3.710938 -1.207031 "/></g></g></g><g fill="#0097b2" fill-opacity="1"><g transform="translate(173.77707, 202.381412)"><g><path d="M 2.984375 0 L 2.984375 -5.003906 L 4.539062 -5.003906 L 4.539062 -6.246094 L 0.175781 -6.246094 L 0.175781 -5.003906 L 1.730469 -5.003906 L 1.730469 0 Z M 2.984375 0 "/></g></g></g><g fill="#0097b2" fill-opacity="1"><g transform="translate(178.563027, 202.381412)"><g><path d="M 3.710938 0.0859375 C 8.015625 0.0859375 8.015625 -6.359375 3.710938 -6.359375 C -0.59375 -6.359375 -0.59375 0.0859375 3.710938 0.0859375 Z M 3.710938 -1.207031 C 1.207031 -1.207031 1.207031 -5.074219 3.710938 -5.074219 C 6.210938 -5.074219 6.210938 -1.207031 3.710938 -1.207031 Z M 3.710938 -1.207031 "/></g></g></g><g fill="#0097b2" fill-opacity="1"><g transform="translate(185.973833, 202.381412)"><g><path d="M 5.214844 -0.386719 L 5.214844 -3.132812 L 3.945312 -3.132812 L 3.945312 -1.25 C 3.832031 -1.234375 3.710938 -1.214844 3.597656 -1.214844 C 1.179688 -1.214844 1.066406 -4.953125 3.597656 -5.039062 C 4.261719 -5.058594 4.664062 -4.917969 4.910156 -4.8125 L 5.058594 -6.082031 C 4.945312 -6.117188 4.339844 -6.335938 3.597656 -6.308594 C -0.742188 -6.152344 -0.535156 0.0351562 3.597656 0.0351562 C 4.191406 0.0351562 4.734375 -0.113281 5.214844 -0.386719 Z M 5.214844 -0.386719 "/></g></g></g><g fill="#0097b2" fill-opacity="1"><g transform="translate(191.862222, 202.381412)"><g><path d="M 3.816406 0 L 5.230469 0 L 3.78125 -2.582031 C 5.617188 -3.113281 5.398438 -6.253906 3.167969 -6.253906 L 0.699219 -6.253906 L 0.699219 0 L 1.949219 0 L 1.949219 -2.386719 L 2.554688 -2.386719 Z M 1.949219 -3.605469 L 1.949219 -5.003906 L 3.054688 -5.003906 C 3.902344 -5.003906 3.902344 -3.605469 3.054688 -3.605469 Z M 1.949219 -3.605469 "/></g></g></g><g fill="#0097b2" fill-opacity="1"><g transform="translate(197.225645, 202.381412)"><g><path d="M 0.140625 0 L 1.558594 0 L 1.800781 -0.671875 L 3.875 -0.671875 L 4.128906 0 L 5.539062 0 L 2.90625 -6.484375 L 2.773438 -6.484375 Z M 2.257812 -1.847656 L 2.84375 -3.472656 L 3.414062 -1.847656 Z M 2.257812 -1.847656 "/></g></g></g><g fill="#0097b2" fill-opacity="1"><g transform="translate(202.939053, 202.381412)"><g><path d="M 1.949219 0 L 1.949219 -2.386719 L 3.160156 -2.386719 C 5.582031 -2.386719 5.589844 -6.246094 3.160156 -6.246094 L 0.699219 -6.246094 L 0.699219 0 Z M 1.949219 -3.605469 L 1.949219 -5.003906 L 3.054688 -5.003906 C 3.894531 -5.003906 3.894531 -3.605469 3.054688 -3.605469 Z M 1.949219 -3.605469 "/></g></g></g><g fill="#0097b2" fill-opacity="1"><g transform="translate(208.214986, 202.381412)"><g><path d="M 5.074219 0 L 5.074219 -6.253906 L 3.824219 -6.253906 L 3.824219 -3.753906 L 1.949219 -3.753906 L 1.949219 -6.253906 L 0.699219 -6.253906 L 0.699219 0 L 1.949219 0 L 1.949219 -2.503906 L 3.824219 -2.503906 L 3.824219 0 Z M 5.074219 0 "/></g></g></g><g fill="#0097b2" fill-opacity="1"><g transform="translate(213.998384, 202.381412)"><g><path d="M 2.230469 0 L 3.472656 0 L 3.472656 -2.816406 L 5.660156 -6.253906 L 4.128906 -6.253906 L 2.851562 -4.101562 L 1.574219 -6.253906 L 0.0507812 -6.253906 L 2.230469 -2.816406 Z M 2.230469 0 "/></g></g></g></svg>