<svg xmlns="http://www.w3.org/2000/svg" xmlns:xlink="http://www.w3.org/1999/xlink" width="120" zoomAndPan="magnify" viewBox="0 0 375 374.999991" height="120" preserveAspectRatio="xMidYMid meet" version="1.0"><defs><g/><clipPath id="b81238e5bc"><path d="M 30 28.585938 L 344.652344 28.585938 L 344.652344 346.441406 L 30 346.441406 Z M 30 28.585938 " clip-rule="nonzero"/></clipPath></defs><path fill="#0097b2" d="M 55.796875 161.226562 L 100.839844 120.996094 L 112.222656 126.816406 L 161.5625 76.714844 L 179.277344 96.453125 L 186.109375 91.644531 L 210.398438 123.273438 L 239.75 99.996094 L 270.496094 125.679688 L 277.582031 118.847656 L 316.925781 154.398438 L 278.339844 128.839844 L 287.703125 151.109375 L 240.640625 106.070312 L 222.421875 123.148438 L 241.144531 170.71875 L 185.859375 103.160156 L 179.027344 108.726562 L 161.570312 85.699219 L 127.410156 174.007812 L 126.652344 141.875 L 100.589844 129.222656 Z M 55.796875 161.226562 " fill-opacity="1" fill-rule="evenodd"/><g clip-path="url(#b81238e5bc)"><path fill="#0097b2" d="M 320.898438 264.167969 C 321.589844 262.960938 323.132812 262.542969 324.335938 263.238281 C 325.542969 263.929688 325.957031 265.472656 325.265625 266.675781 C 311.304688 290.917969 291.132812 311.125 266.933594 325.125 C 243.554688 338.648438 216.417969 346.390625 187.488281 346.390625 C 158.554688 346.390625 131.417969 338.648438 108.039062 325.125 C 83.839844 311.125 63.667969 290.917969 49.707031 266.675781 C 49.015625 265.472656 49.429688 263.929688 50.636719 263.238281 C 51.84375 262.542969 53.382812 262.960938 54.074219 264.167969 C 67.589844 287.628906 87.125 307.195312 110.570312 320.757812 C 133.1875 333.839844 159.457031 341.328125 187.488281 341.328125 C 215.515625 341.328125 241.785156 333.839844 264.40625 320.757812 C 287.851562 307.195312 307.382812 287.628906 320.898438 264.167969 Z M 35.203125 165.578125 C 35.007812 166.960938 33.726562 167.921875 32.347656 167.726562 C 30.964844 167.527344 30.003906 166.25 30.199219 164.867188 C 35.730469 126.089844 55.261719 91.820312 83.507812 67.347656 C 111.375 43.199219 147.730469 28.589844 187.488281 28.589844 C 227.246094 28.589844 263.597656 43.199219 291.46875 67.347656 C 319.714844 91.820312 339.246094 126.089844 344.773438 164.867188 C 344.96875 166.25 344.007812 167.527344 342.628906 167.726562 C 341.246094 167.921875 339.96875 166.960938 339.769531 165.578125 C 334.417969 128.035156 315.511719 94.851562 288.167969 71.160156 C 261.191406 47.792969 225.992188 33.648438 187.488281 33.648438 C 148.980469 33.648438 113.78125 47.789062 86.808594 71.160156 C 59.460938 94.851562 40.554688 128.035156 35.203125 165.578125 Z M 35.203125 165.578125 " fill-opacity="1" fill-rule="nonzero"/></g><g fill="#0097b2" fill-opacity="1"><g transform="translate(159.077947, 200.919077)"><g><path d="M 12.449219 0 L 12.449219 -20.886719 L 18.949219 -20.886719 L 18.949219 -26.070312 L 0.730469 -26.070312 L 0.730469 -20.886719 L 7.230469 -20.886719 L 7.230469 0 Z M 12.449219 0 "/></g></g></g><g fill="#0097b2" fill-opacity="1"><g transform="translate(179.050579, 200.919077)"><g><path d="M 8.140625 0 L 8.140625 -26.105469 L 2.921875 -26.105469 L 2.921875 0 Z M 8.140625 0 "/></g></g></g><g fill="#0097b2" fill-opacity="1"><g transform="translate(190.15055, 200.919077)"><g><path d="M 8.140625 -14.203125 L 21.359375 0.546875 L 22.746094 0.546875 L 22.746094 -26.070312 L 17.488281 -26.070312 L 17.488281 -11.320312 L 4.308594 -26.65625 L 2.921875 -26.65625 L 2.921875 0 L 8.140625 0 Z M 8.140625 -14.203125 "/></g></g></g><g fill="#0097b2" fill-opacity="1"><g transform="translate(53.152766, 249.602823)"><g><path d="M 8.140625 0 L 8.140625 -9.96875 L 13.179688 -9.96875 C 23.296875 -9.96875 23.332031 -26.070312 13.179688 -26.070312 L 2.921875 -26.070312 L 2.921875 0 Z M 8.140625 -15.042969 L 8.140625 -20.886719 L 12.742188 -20.886719 C 16.25 -20.886719 16.25 -15.042969 12.742188 -15.042969 Z M 8.140625 -15.042969 "/></g></g></g><g fill="#0097b2" fill-opacity="1"><g transform="translate(75.170153, 249.602823)"><g><path d="M 21.175781 0 L 21.175781 -26.105469 L 15.957031 -26.105469 L 15.957031 -15.664062 L 8.140625 -15.664062 L 8.140625 -26.105469 L 2.921875 -26.105469 L 2.921875 0 L 8.140625 0 L 8.140625 -10.441406 L 15.957031 -10.441406 L 15.957031 0 Z M 21.175781 0 "/></g></g></g><g fill="#0097b2" fill-opacity="1"><g transform="translate(99.30528, 249.602823)"><g><path d="M 15.480469 0.363281 C 33.445312 0.363281 33.445312 -26.542969 15.480469 -26.542969 C -2.484375 -26.542969 -2.484375 0.363281 15.480469 0.363281 Z M 15.480469 -5.039062 C 5.039062 -5.039062 5.039062 -21.175781 15.480469 -21.175781 C 25.925781 -21.175781 25.925781 -5.039062 15.480469 -5.039062 Z M 15.480469 -5.039062 "/></g></g></g><g fill="#0097b2" fill-opacity="1"><g transform="translate(130.231866, 249.602823)"><g><path d="M 12.449219 0 L 12.449219 -20.886719 L 18.949219 -20.886719 L 18.949219 -26.070312 L 0.730469 -26.070312 L 0.730469 -20.886719 L 7.230469 -20.886719 L 7.230469 0 Z M 12.449219 0 "/></g></g></g><g fill="#0097b2" fill-opacity="1"><g transform="translate(150.204497, 249.602823)"><g><path d="M 15.480469 0.363281 C 33.445312 0.363281 33.445312 -26.542969 15.480469 -26.542969 C -2.484375 -26.542969 -2.484375 0.363281 15.480469 0.363281 Z M 15.480469 -5.039062 C 5.039062 -5.039062 5.039062 -21.175781 15.480469 -21.175781 C 25.925781 -21.175781 25.925781 -5.039062 15.480469 -5.039062 Z M 15.480469 -5.039062 "/></g></g></g><g fill="#0097b2" fill-opacity="1"><g transform="translate(181.131084, 249.602823)"><g><path d="M 21.761719 -1.605469 L 21.761719 -13.070312 L 16.46875 -13.070312 L 16.46875 -5.222656 C 15.992188 -5.148438 15.480469 -5.074219 15.007812 -5.074219 C 4.929688 -5.074219 4.453125 -20.667969 15.007812 -21.03125 C 17.78125 -21.105469 19.460938 -20.519531 20.484375 -20.082031 L 21.105469 -25.375 C 20.628906 -25.523438 18.109375 -26.433594 15.007812 -26.324219 C -3.105469 -25.667969 -2.226562 0.144531 15.007812 0.144531 C 17.488281 0.144531 19.753906 -0.476562 21.761719 -1.605469 Z M 21.761719 -1.605469 "/></g></g></g><g fill="#0097b2" fill-opacity="1"><g transform="translate(205.704356, 249.602823)"><g><path d="M 15.917969 0 L 21.835938 0 L 15.773438 -10.769531 C 23.441406 -13 22.527344 -26.105469 13.21875 -26.105469 L 2.921875 -26.105469 L 2.921875 0 L 8.140625 0 L 8.140625 -9.96875 L 10.660156 -9.96875 Z M 8.140625 -15.042969 L 8.140625 -20.886719 L 12.742188 -20.886719 C 16.285156 -20.886719 16.285156 -15.042969 12.742188 -15.042969 Z M 8.140625 -15.042969 "/></g></g></g><g fill="#0097b2" fill-opacity="1"><g transform="translate(228.086856, 249.602823)"><g><path d="M 0.585938 0 L 6.5 0 L 7.523438 -2.8125 L 16.175781 -2.8125 L 17.234375 0 L 23.113281 0 L 12.121094 -27.054688 L 11.574219 -27.054688 Z M 9.421875 -7.703125 L 11.867188 -14.496094 L 14.238281 -7.703125 Z M 9.421875 -7.703125 "/></g></g></g><g fill="#0097b2" fill-opacity="1"><g transform="translate(251.929902, 249.602823)"><g><path d="M 8.140625 0 L 8.140625 -9.96875 L 13.179688 -9.96875 C 23.296875 -9.96875 23.332031 -26.070312 13.179688 -26.070312 L 2.921875 -26.070312 L 2.921875 0 Z M 8.140625 -15.042969 L 8.140625 -20.886719 L 12.742188 -20.886719 C 16.25 -20.886719 16.25 -15.042969 12.742188 -15.042969 Z M 8.140625 -15.042969 "/></g></g></g><g fill="#0097b2" fill-opacity="1"><g transform="translate(273.947288, 249.602823)"><g><path d="M 21.175781 0 L 21.175781 -26.105469 L 15.957031 -26.105469 L 15.957031 -15.664062 L 8.140625 -15.664062 L 8.140625 -26.105469 L 2.921875 -26.105469 L 2.921875 0 L 8.140625 0 L 8.140625 -10.441406 L 15.957031 -10.441406 L 15.957031 0 Z M 21.175781 0 "/></g></g></g><g fill="#0097b2" fill-opacity="1"><g transform="translate(298.082415, 249.602823)"><g><path d="M 9.3125 0 L 14.496094 0 L 14.496094 -11.757812 L 23.625 -26.105469 L 17.234375 -26.105469 L 11.902344 -17.125 L 6.574219 -26.105469 L 0.21875 -26.105469 L 9.3125 -11.757812 Z M 9.3125 0 "/></g></g></g></svg>